# xmcd
#
# Track frame offsets: 
#        150
#        14009
#        26572
#        38714
#        51813
#        63438
#        72936
#        83171
#        93616
#        105724
#        115911
#
# Disc length: 1683 seconds
#
# Revision: 0
# Processed by: cddbd v1.5.2PL0 Copyright (c) Steve Scherf et al.
# Submitted via: ExactAudioCopy v0.99pb5
#
DISCID=9106910b
DTITLE=Loretta Lynn - Loretta Lynn's Greatest Hits Vol II
DYEAR=1974
DGENRE=Country
TTITLE0=Coal Miner's Daughter
TTITLE1=Ain't It Funny
TTITLE2=One's On The Way
TTITLE3=Hey Loretta
TTITLE4=Love Is The Foundation
TTITLE5=Your Squaw Is On The Warpath
TTITLE6=What Sundown Does To You
TTITLE7=I Wanna Be Free
TTITLE8=Wings Upon Your Horns
TTITLE9=Fist City
TTITLE10=You're Lookin' At Country
EXTD=
EXTT0=
EXTT1=
EXTT2=
EXTT3=
EXTT4=
EXTT5=
EXTT6=
EXTT7=
EXTT8=
EXTT9=
EXTT10=
PLAYORDER=
